<svg width="263" height="77" viewBox="0 0 263 77" fill="none" xmlns="http://www.w3.org/2000/svg">
<path d="M6.732 70.132C5.652 70.132 4.908 69.892 4.5 69.412C4.092 68.932 3.888 68.32 3.888 67.576C3.888 66.88 4.032 66.052 4.32 65.092C4.608 64.132 4.908 63.208 5.22 62.32C5.628 61.144 6.12 59.764 6.696 58.18C7.272 56.596 7.884 54.94 8.532 53.212C9.204 51.484 9.876 49.78 10.548 48.1C11.244 46.42 11.916 44.896 12.564 43.528C10.908 43.552 9.516 43.588 8.388 43.636C7.284 43.684 6.288 43.756 5.4 43.852C4.512 43.924 3.54 44.056 2.484 44.248C2.556 43.432 2.976 42.796 3.744 42.34C4.512 41.884 5.544 41.56 6.84 41.368C8.136 41.176 9.612 41.08 11.268 41.08C12.924 41.08 14.4 41.152 15.696 41.296C17.016 41.416 18.252 41.536 19.404 41.656C20.556 41.776 21.708 41.848 22.86 41.872C22.044 42.616 21.108 43.084 20.052 43.276C18.996 43.468 17.88 43.564 16.704 43.564C16.296 43.564 15.876 43.564 15.444 43.564C15.012 43.54 14.58 43.528 14.148 43.528C13.38 45.448 12.492 47.872 11.484 50.8C10.5 53.728 9.504 57.028 8.496 60.7C7.968 62.596 7.536 64.216 7.2 65.56C6.864 66.88 6.696 68.14 6.696 69.34C6.696 69.46 6.696 69.592 6.696 69.736C6.696 69.88 6.708 70.012 6.732 70.132ZM21.6776 51.448C21.2936 51.448 20.9456 51.352 20.6336 51.16C20.3456 50.968 20.2016 50.668 20.2016 50.26C20.2016 49.756 20.4896 49.324 21.0656 48.964C21.6656 48.58 22.2536 48.388 22.8296 48.388C23.1896 48.388 23.4776 48.472 23.6936 48.64C23.9096 48.808 24.0176 49.096 24.0176 49.504C24.0176 49.96 23.7656 50.404 23.2616 50.836C22.7816 51.244 22.2536 51.448 21.6776 51.448ZM17.3576 67.936C16.4216 67.936 15.7256 67.636 15.2696 67.036C14.8136 66.46 14.5856 65.752 14.5856 64.912C14.5856 64.36 14.6816 63.664 14.8736 62.824C15.0896 61.984 15.3656 61.108 15.7016 60.196C16.0376 59.26 16.4216 58.384 16.8536 57.568C17.3096 56.752 17.7896 56.092 18.2936 55.588C18.7976 55.06 19.2896 54.796 19.7696 54.796C19.9856 54.796 20.1656 54.868 20.3096 55.012C20.4776 55.132 20.5616 55.324 20.5616 55.588C20.5616 55.876 20.3696 56.344 19.9856 56.992C19.6256 57.64 19.1936 58.384 18.6896 59.224C18.1856 60.064 17.7416 60.952 17.3576 61.888C16.9976 62.8 16.8176 63.676 16.8176 64.516C16.8176 65.38 16.9616 65.956 17.2496 66.244C17.5376 66.532 17.9816 66.676 18.5816 66.676C19.3976 66.676 20.2616 66.268 21.1736 65.452C22.1096 64.636 23.0936 63.208 24.1256 61.168L24.4496 61.528C23.7536 63.592 22.7456 65.176 21.4256 66.28C20.1296 67.384 18.7736 67.936 17.3576 67.936ZM41.5932 68.116C40.7532 68.116 40.1412 67.852 39.7572 67.324C39.3732 66.82 39.1812 66.208 39.1812 65.488C39.1812 64.888 39.2652 64.288 39.4332 63.688C39.6252 63.088 39.8052 62.5 39.9732 61.924C40.1652 61.348 40.2612 60.832 40.2612 60.376C40.2612 59.896 40.1532 59.56 39.9372 59.368C39.7212 59.176 39.4812 59.08 39.2172 59.08C38.6172 59.08 37.9572 59.548 37.2372 60.484C36.5412 61.42 35.6292 62.74 34.5012 64.444C34.1172 65.02 33.7932 65.608 33.5292 66.208C33.2652 66.784 33.0132 67.312 32.7732 67.792C32.5812 67.792 32.3412 67.768 32.0532 67.72C31.7652 67.672 31.5012 67.588 31.2612 67.468C31.0452 67.372 30.9372 67.24 30.9372 67.072C30.9372 66.904 31.0452 66.508 31.2612 65.884C31.5012 65.236 31.7652 64.492 32.0532 63.652C32.3652 62.788 32.6292 61.924 32.8452 61.06C33.0852 60.172 33.2052 59.416 33.2052 58.792C33.2052 58.384 33.1332 58.06 32.9892 57.82C32.8692 57.556 32.6412 57.424 32.3052 57.424C31.7772 57.424 31.1412 57.748 30.3972 58.396C29.6532 59.02 28.8852 59.848 28.0932 60.88C27.3012 61.912 26.5452 63.052 25.8252 64.3C25.1292 65.524 24.5652 66.748 24.1332 67.972C23.7972 67.972 23.3892 67.888 22.9092 67.72C22.4292 67.552 22.1892 67.384 22.1892 67.216C22.1892 67.072 22.3212 66.652 22.5852 65.956C22.8252 65.236 23.1132 64.384 23.4492 63.4C23.7612 62.392 24.0372 61.372 24.2772 60.34C24.5412 59.308 24.6732 58.396 24.6732 57.604C24.8172 57.436 25.0452 57.268 25.3572 57.1C25.6692 56.932 25.9932 56.848 26.3292 56.848C26.9772 56.848 27.3012 57.16 27.3012 57.784C27.3012 58.096 27.2052 58.636 27.0132 59.404C26.8452 60.148 26.6292 60.976 26.3652 61.888C26.8452 61.12 27.3852 60.34 27.9852 59.548C28.6092 58.732 29.2572 57.988 29.9292 57.316C30.6012 56.644 31.2732 56.104 31.9452 55.696C32.6412 55.264 33.3132 55.048 33.9612 55.048C34.7052 55.048 35.2092 55.324 35.4732 55.876C35.7612 56.404 35.9052 57.04 35.9052 57.784C35.9052 58.384 35.8332 59.02 35.6892 59.692C35.5692 60.34 35.4252 60.952 35.2572 61.528C35.0892 62.08 34.9332 62.524 34.7892 62.86C35.2932 61.948 35.8452 61.072 36.4452 60.232C37.0692 59.368 37.7412 58.672 38.4612 58.144C39.1812 57.592 39.9492 57.316 40.7652 57.316C41.5332 57.316 42.0612 57.544 42.3492 58C42.6612 58.456 42.8172 58.996 42.8172 59.62C42.8172 60.244 42.7092 60.928 42.4932 61.672C42.2772 62.416 42.0492 63.136 41.8092 63.832C41.5932 64.528 41.4852 65.128 41.4852 65.632C41.4852 65.944 41.5572 66.232 41.7012 66.496C41.8692 66.736 42.1572 66.856 42.5652 66.856C43.2372 66.856 43.8612 66.556 44.4372 65.956C45.0372 65.332 45.5892 64.588 46.0932 63.724C46.5972 62.836 47.0292 61.984 47.3892 61.168L47.8212 61.672C47.4372 62.68 46.9452 63.688 46.3452 64.696C45.7452 65.68 45.0372 66.496 44.2212 67.144C43.4292 67.792 42.5532 68.116 41.5932 68.116ZM50.6107 68.584C49.1467 68.584 48.0427 68.176 47.2987 67.36C46.5787 66.568 46.2187 65.584 46.2187 64.408C46.2187 63.328 46.4827 62.188 47.0107 60.988C47.5627 59.788 48.2827 58.66 49.1707 57.604C50.0827 56.548 51.0787 55.696 52.1587 55.048C53.2387 54.376 54.3067 54.04 55.3627 54.04C55.9147 54.04 56.4187 54.184 56.8747 54.472C57.3547 54.76 57.5947 55.348 57.5947 56.236C57.5947 57.148 57.3187 58.012 56.7667 58.828C56.2387 59.62 55.5307 60.328 54.6427 60.952C53.7787 61.576 52.8187 62.092 51.7627 62.5C50.7307 62.884 49.6987 63.124 48.6667 63.22C48.6187 63.46 48.5827 63.688 48.5587 63.904C48.5347 64.12 48.5227 64.324 48.5227 64.516C48.5227 65.26 48.7147 65.956 49.0987 66.604C49.5067 67.228 50.2627 67.54 51.3667 67.54C52.3987 67.54 53.4187 67.252 54.4267 66.676C55.4347 66.076 56.3707 65.296 57.2347 64.336C58.0987 63.376 58.8307 62.32 59.4307 61.168L59.8627 61.492C59.2147 62.932 58.3867 64.18 57.3787 65.236C56.3947 66.292 55.3147 67.108 54.1387 67.684C52.9867 68.284 51.8107 68.584 50.6107 68.584ZM48.8467 62.536C49.4947 62.32 50.2267 62.008 51.0427 61.6C51.8587 61.168 52.6387 60.664 53.3827 60.088C54.1507 59.512 54.7747 58.876 55.2547 58.18C55.7587 57.484 56.0107 56.752 56.0107 55.984C56.0107 55.72 55.9627 55.516 55.8667 55.372C55.7707 55.228 55.5667 55.156 55.2547 55.156C54.6787 55.156 54.0667 55.384 53.4187 55.84C52.7707 56.272 52.1467 56.848 51.5467 57.568C50.9467 58.288 50.4067 59.08 49.9267 59.944C49.4467 60.808 49.0867 61.672 48.8467 62.536ZM61.6989 68.08C60.6669 68.08 59.9229 67.72 59.4669 67C59.0349 66.304 58.8189 65.428 58.8189 64.372C58.8189 63.22 59.0349 61.852 59.4669 60.268C59.8989 58.684 60.4629 57.016 61.1589 55.264C61.8789 53.512 62.6589 51.808 63.4989 50.152C64.3389 48.472 65.1789 46.948 66.0189 45.58C66.8589 44.212 67.6269 43.12 68.3229 42.304C69.0429 41.488 69.6069 41.08 70.0149 41.08C70.2789 41.08 70.4949 41.236 70.6629 41.548C70.8309 41.836 70.9629 42.196 71.0589 42.628C71.1549 43.036 71.2029 43.408 71.2029 43.744C71.2029 44.392 71.0349 45.244 70.6989 46.3C70.3869 47.332 69.9309 48.496 69.3309 49.792C68.7549 51.064 68.0589 52.36 67.2429 53.68C66.4509 54.976 65.5749 56.224 64.6149 57.424C63.6789 58.624 62.6829 59.656 61.6269 60.52C61.4829 61.168 61.3629 61.804 61.2669 62.428C61.1949 63.028 61.1589 63.604 61.1589 64.156C61.1589 66.004 61.6869 66.928 62.7429 66.928C63.3909 66.928 64.0269 66.64 64.6509 66.064C65.2989 65.488 65.8989 64.768 66.4509 63.904C67.0269 63.016 67.5189 62.104 67.9269 61.168L68.4669 61.456C67.5069 63.496 66.4629 65.116 65.3349 66.316C64.2069 67.492 62.9949 68.08 61.6989 68.08ZM61.9509 59.296C62.7909 58.456 63.6069 57.496 64.3989 56.416C65.1909 55.312 65.9229 54.172 66.5949 52.996C67.2909 51.82 67.9029 50.68 68.4309 49.576C68.9589 48.472 69.3669 47.488 69.6549 46.624C69.9429 45.736 70.0869 45.052 70.0869 44.572C70.0869 44.332 70.0509 44.176 69.9789 44.104C69.9309 44.032 69.8829 43.996 69.8349 43.996C69.6429 43.996 69.3069 44.308 68.8269 44.932C68.3709 45.532 67.8309 46.348 67.2069 47.38C66.5829 48.412 65.9469 49.588 65.2989 50.908C64.6509 52.228 64.0269 53.608 63.4269 55.048C62.8509 56.488 62.3589 57.904 61.9509 59.296ZM71.1068 68.584C69.6428 68.584 68.5388 68.176 67.7948 67.36C67.0747 66.568 66.7147 65.584 66.7147 64.408C66.7147 63.328 66.9787 62.188 67.5068 60.988C68.0588 59.788 68.7788 58.66 69.6668 57.604C70.5788 56.548 71.5748 55.696 72.6548 55.048C73.7348 54.376 74.8028 54.04 75.8588 54.04C76.4108 54.04 76.9148 54.184 77.3708 54.472C77.8508 54.76 78.0908 55.348 78.0908 56.236C78.0908 57.148 77.8148 58.012 77.2628 58.828C76.7348 59.62 76.0268 60.328 75.1388 60.952C74.2748 61.576 73.3148 62.092 72.2588 62.5C71.2268 62.884 70.1948 63.124 69.1628 63.22C69.1148 63.46 69.0788 63.688 69.0548 63.904C69.0308 64.12 69.0188 64.324 69.0188 64.516C69.0188 65.26 69.2108 65.956 69.5947 66.604C70.0028 67.228 70.7588 67.54 71.8628 67.54C72.8948 67.54 73.9148 67.252 74.9228 66.676C75.9308 66.076 76.8668 65.296 77.7308 64.336C78.5948 63.376 79.3268 62.32 79.9268 61.168L80.3588 61.492C79.7108 62.932 78.8828 64.18 77.8748 65.236C76.8908 66.292 75.8108 67.108 74.6348 67.684C73.4828 68.284 72.3068 68.584 71.1068 68.584ZM69.3428 62.536C69.9908 62.32 70.7228 62.008 71.5388 61.6C72.3548 61.168 73.1348 60.664 73.8788 60.088C74.6468 59.512 75.2708 58.876 75.7508 58.18C76.2548 57.484 76.5068 56.752 76.5068 55.984C76.5068 55.72 76.4588 55.516 76.3628 55.372C76.2668 55.228 76.0628 55.156 75.7508 55.156C75.1748 55.156 74.5628 55.384 73.9148 55.84C73.2668 56.272 72.6428 56.848 72.0428 57.568C71.4428 58.288 70.9028 59.08 70.4228 59.944C69.9428 60.808 69.5828 61.672 69.3428 62.536ZM82.987 68.836C81.859 68.836 80.959 68.584 80.287 68.08C79.639 67.6 79.183 67 78.919 66.28C78.631 65.56 78.487 64.84 78.487 64.12C78.487 63.4 78.583 62.848 78.775 62.464C78.967 62.08 79.195 61.792 79.459 61.6C79.747 61.408 80.011 61.264 80.251 61.168C80.515 61.072 80.695 60.976 80.791 60.88C81.511 60.088 82.171 59.26 82.771 58.396C83.371 57.532 83.899 56.62 84.355 55.66V55.228C84.355 54.34 84.499 53.716 84.787 53.356C85.099 52.972 85.423 52.78 85.759 52.78C86.143 52.78 86.335 52.936 86.335 53.248C86.335 53.368 86.299 53.56 86.227 53.824C86.155 54.088 86.119 54.424 86.119 54.832C86.119 55.624 86.275 56.488 86.587 57.424C86.899 58.336 87.211 59.308 87.523 60.34C87.835 61.348 87.991 62.404 87.991 63.508C87.991 64.132 87.919 64.72 87.775 65.272C88.615 65.128 89.407 64.756 90.151 64.156C90.895 63.532 91.615 62.548 92.311 61.204L92.635 61.564C92.179 62.884 91.495 63.892 90.583 64.588C89.671 65.26 88.675 65.68 87.595 65.848C87.211 66.88 86.599 67.636 85.759 68.116C84.943 68.596 84.019 68.836 82.987 68.836ZM85.507 65.236C85.555 64.996 85.591 64.744 85.615 64.48C85.639 64.216 85.651 63.904 85.651 63.544C85.651 62.416 85.507 61.3 85.219 60.196C84.955 59.068 84.727 58.012 84.535 57.028C83.983 57.94 83.395 58.816 82.771 59.656C82.171 60.472 81.595 61.156 81.043 61.708C81.403 62.476 81.955 63.196 82.699 63.868C83.467 64.54 84.403 64.996 85.507 65.236ZM83.059 67.576C83.347 67.576 83.731 67.48 84.211 67.288C84.691 67.096 85.063 66.604 85.327 65.812C84.319 65.62 83.419 65.224 82.627 64.624C81.859 64.024 81.283 63.424 80.899 62.824C80.371 62.848 80.107 63.268 80.107 64.084C80.107 64.948 80.359 65.752 80.863 66.496C81.391 67.216 82.123 67.576 83.059 67.576ZM95.3972 68.836C94.2692 68.836 93.3692 68.584 92.6972 68.08C92.0492 67.6 91.5932 67 91.3292 66.28C91.0412 65.56 90.8972 64.84 90.8972 64.12C90.8972 63.4 90.9932 62.848 91.1852 62.464C91.3772 62.08 91.6052 61.792 91.8692 61.6C92.1572 61.408 92.4212 61.264 92.6612 61.168C92.9252 61.072 93.1052 60.976 93.2012 60.88C93.9212 60.088 94.5812 59.26 95.1812 58.396C95.7812 57.532 96.3092 56.62 96.7652 55.66V55.228C96.7652 54.34 96.9092 53.716 97.1972 53.356C97.5092 52.972 97.8332 52.78 98.1692 52.78C98.5532 52.78 98.7452 52.936 98.7452 53.248C98.7452 53.368 98.7092 53.56 98.6372 53.824C98.5652 54.088 98.5292 54.424 98.5292 54.832C98.5292 55.624 98.6852 56.488 98.9972 57.424C99.3092 58.336 99.6212 59.308 99.9332 60.34C100.245 61.348 100.401 62.404 100.401 63.508C100.401 64.132 100.329 64.72 100.185 65.272C101.025 65.128 101.817 64.756 102.561 64.156C103.305 63.532 104.025 62.548 104.721 61.204L105.045 61.564C104.589 62.884 103.905 63.892 102.993 64.588C102.081 65.26 101.085 65.68 100.005 65.848C99.6212 66.88 99.0092 67.636 98.1692 68.116C97.3532 68.596 96.4292 68.836 95.3972 68.836ZM97.9172 65.236C97.9652 64.996 98.0012 64.744 98.0252 64.48C98.0492 64.216 98.0612 63.904 98.0612 63.544C98.0612 62.416 97.9172 61.3 97.6292 60.196C97.3652 59.068 97.1372 58.012 96.9452 57.028C96.3932 57.94 95.8052 58.816 95.1812 59.656C94.5812 60.472 94.0052 61.156 93.4532 61.708C93.8132 62.476 94.3652 63.196 95.1092 63.868C95.8772 64.54 96.8132 64.996 97.9172 65.236ZM95.4692 67.576C95.7572 67.576 96.1412 67.48 96.6212 67.288C97.1012 67.096 97.4732 66.604 97.7372 65.812C96.7292 65.62 95.8292 65.224 95.0372 64.624C94.2692 64.024 93.6932 63.424 93.3092 62.824C92.7812 62.848 92.5172 63.268 92.5172 64.084C92.5172 64.948 92.7692 65.752 93.2732 66.496C93.8012 67.216 94.5332 67.576 95.4692 67.576ZM131.955 71.284C130.851 71.284 129.831 70.972 128.895 70.348C127.959 69.748 127.059 69.076 126.195 68.332C125.619 68.62 125.031 68.848 124.431 69.016C123.831 69.184 123.219 69.268 122.595 69.268C121.491 69.268 120.651 69.052 120.075 68.62C119.523 68.212 119.139 67.756 118.923 67.252C118.731 66.748 118.635 66.364 118.635 66.1C118.635 65.692 118.827 65.284 119.211 64.876C119.619 64.444 120.303 64.228 121.263 64.228C122.247 64.228 123.207 64.468 124.143 64.948C125.079 65.404 126.027 65.932 126.987 66.532C128.067 65.572 129.015 64.348 129.831 62.86C130.671 61.372 131.367 59.776 131.919 58.072C132.495 56.368 132.927 54.7 133.215 53.068C133.527 51.412 133.683 49.948 133.683 48.676C133.683 46.708 133.311 45.112 132.567 43.888C131.823 42.664 130.611 42.052 128.931 42.052C127.539 42.052 126.243 42.472 125.043 43.312C123.843 44.128 122.751 45.232 121.767 46.624C120.807 48.016 119.979 49.576 119.283 51.304C118.587 53.008 118.047 54.772 117.663 56.596C117.303 58.42 117.123 60.16 117.123 61.816C117.123 62.32 117.147 62.824 117.195 63.328C117.243 63.832 117.315 64.336 117.411 64.84C116.667 64.84 116.091 64.6 115.683 64.12C115.299 63.64 115.023 63.028 114.855 62.284C114.711 61.516 114.639 60.7 114.639 59.836C114.639 58.036 114.879 56.248 115.359 54.472C115.839 52.672 116.511 50.968 117.375 49.36C118.263 47.752 119.295 46.336 120.471 45.112C121.671 43.864 122.979 42.88 124.395 42.16C125.835 41.44 127.335 41.08 128.895 41.08C131.199 41.08 132.987 41.872 134.259 43.456C135.555 45.016 136.203 47.14 136.203 49.828C136.203 51.34 135.999 52.924 135.591 54.58C135.183 56.212 134.607 57.82 133.863 59.404C133.143 60.964 132.291 62.416 131.307 63.76C130.323 65.104 129.243 66.232 128.067 67.144C128.883 67.6 129.723 67.984 130.587 68.296C131.475 68.632 132.411 68.8 133.395 68.8C133.923 68.8 134.307 68.752 134.547 68.656C134.811 68.56 135.123 68.464 135.483 68.368C135.243 69.208 134.907 69.832 134.475 70.24C134.067 70.672 133.635 70.948 133.179 71.068C132.747 71.212 132.339 71.284 131.955 71.284ZM122.595 68.368C123.099 68.368 123.579 68.296 124.035 68.152C124.515 68.032 124.971 67.852 125.403 67.612C124.659 66.964 123.915 66.4 123.171 65.92C122.451 65.416 121.695 65.164 120.903 65.164C120.351 65.164 119.991 65.284 119.823 65.524C119.655 65.74 119.571 65.944 119.571 66.136C119.571 66.352 119.655 66.64 119.823 67C119.991 67.336 120.291 67.648 120.723 67.936C121.155 68.224 121.779 68.368 122.595 68.368ZM140.126 68.08C139.31 68.08 138.65 67.72 138.146 67C137.666 66.256 137.426 65.404 137.426 64.444C137.426 63.748 137.534 62.944 137.75 62.032C137.99 61.12 138.278 60.22 138.614 59.332C138.95 58.444 139.298 57.712 139.658 57.136C140.018 56.56 140.33 56.272 140.594 56.272C140.714 56.272 140.918 56.344 141.206 56.488C141.494 56.608 141.734 56.776 141.926 56.992C141.662 57.4 141.338 58.024 140.954 58.864C140.57 59.704 140.234 60.604 139.946 61.564C139.658 62.524 139.514 63.412 139.514 64.228C139.514 64.42 139.538 64.72 139.586 65.128C139.634 65.512 139.754 65.86 139.946 66.172C140.138 66.484 140.426 66.64 140.81 66.64C141.266 66.64 141.734 66.412 142.214 65.956C142.694 65.476 143.174 64.864 143.654 64.12C144.158 63.376 144.638 62.572 145.094 61.708C145.55 60.844 145.97 60.016 146.354 59.224C146.762 58.432 147.098 57.772 147.362 57.244C147.506 57.268 147.71 57.316 147.974 57.388C148.262 57.46 148.514 57.556 148.73 57.676C148.97 57.796 149.09 57.964 149.09 58.18C149.09 58.276 148.97 58.6 148.73 59.152C148.49 59.68 148.202 60.34 147.866 61.132C147.554 61.9 147.278 62.68 147.038 63.472C146.798 64.264 146.678 64.96 146.678 65.56C146.678 65.992 146.762 66.34 146.93 66.604C147.122 66.868 147.434 67 147.866 67C148.37 67 148.982 66.772 149.702 66.316C150.422 65.86 151.154 65.2 151.898 64.336C152.642 63.448 153.302 62.392 153.878 61.168L154.346 61.492C153.842 62.788 153.182 63.94 152.366 64.948C151.55 65.932 150.686 66.7 149.774 67.252C148.862 67.804 147.974 68.08 147.11 68.08C146.15 68.08 145.49 67.816 145.13 67.288C144.77 66.784 144.59 66.16 144.59 65.416C144.59 65.128 144.614 64.84 144.662 64.552C144.71 64.24 144.77 63.928 144.842 63.616C144.17 64.792 143.438 65.836 142.646 66.748C141.878 67.636 141.038 68.08 140.126 68.08ZM155.695 68.152C154.663 68.152 153.931 67.828 153.499 67.18C153.067 66.556 152.851 65.788 152.851 64.876C152.851 64.132 152.971 63.364 153.211 62.572C153.451 61.78 153.763 61.036 154.147 60.34C154.555 59.644 154.999 59.08 155.479 58.648C155.983 58.216 156.487 58 156.991 58C157.207 58 157.459 58.06 157.747 58.18C157.531 58.372 157.267 58.732 156.955 59.26C156.667 59.764 156.391 60.352 156.127 61.024C155.863 61.672 155.635 62.32 155.443 62.968C155.275 63.616 155.191 64.168 155.191 64.624C155.191 65.344 155.311 65.872 155.551 66.208C155.791 66.52 156.103 66.676 156.487 66.676C156.991 66.676 157.591 66.412 158.287 65.884C158.983 65.332 159.667 64.636 160.339 63.796C159.667 63.244 159.139 62.524 158.755 61.636C158.395 60.724 158.215 59.8 158.215 58.864C158.215 58.072 158.347 57.328 158.611 56.632C158.899 55.936 159.307 55.384 159.835 54.976C160.363 54.544 160.999 54.328 161.743 54.328C162.727 54.328 163.387 54.592 163.723 55.12C164.059 55.648 164.227 56.308 164.227 57.1C164.227 58.036 163.999 59.08 163.543 60.232C163.087 61.36 162.511 62.452 161.815 63.508C162.247 63.748 162.703 63.868 163.183 63.868C163.735 63.868 164.407 63.688 165.199 63.328C165.991 62.944 166.603 62.26 167.035 61.276L167.467 61.636C166.987 62.764 166.303 63.568 165.415 64.048C164.551 64.504 163.723 64.732 162.931 64.732C162.283 64.732 161.707 64.612 161.203 64.372C160.387 65.452 159.487 66.352 158.503 67.072C157.543 67.792 156.607 68.152 155.695 68.152ZM160.987 62.86C161.587 61.972 162.079 61.048 162.463 60.088C162.871 59.104 163.075 58.18 163.075 57.316C163.075 56.62 162.967 56.116 162.751 55.804C162.559 55.468 162.307 55.3 161.995 55.3C161.515 55.3 161.023 55.648 160.519 56.344C160.015 57.04 159.763 57.916 159.763 58.972C159.763 59.668 159.859 60.376 160.051 61.096C160.267 61.792 160.579 62.38 160.987 62.86ZM169.419 68.656C167.283 68.656 166.215 67.468 166.215 65.092C166.215 64.036 166.407 62.74 166.791 61.204C167.199 59.644 167.703 58.048 168.303 56.416C168.063 56.368 167.835 56.332 167.619 56.308C167.403 56.26 167.199 56.2 167.007 56.128V55.48C167.199 55.504 167.427 55.528 167.691 55.552C167.955 55.576 168.255 55.6 168.591 55.624C169.095 54.328 169.635 53.08 170.211 51.88C170.787 50.656 171.351 49.576 171.903 48.64C172.479 47.68 173.019 46.924 173.523 46.372C174.051 45.796 174.495 45.508 174.855 45.508C175.047 45.508 175.215 45.58 175.359 45.724C175.527 45.844 175.611 46.036 175.611 46.3C175.611 46.708 175.359 47.38 174.855 48.316C174.351 49.228 173.727 50.32 172.983 51.592C172.239 52.864 171.519 54.244 170.823 55.732H172.155C172.947 55.732 173.775 55.72 174.639 55.696C175.527 55.672 176.415 55.612 177.303 55.516V56.164C174.687 56.452 172.575 56.596 170.967 56.596H170.427C169.875 57.868 169.407 59.176 169.023 60.52C168.639 61.864 168.447 63.172 168.447 64.444C168.447 65.476 168.603 66.22 168.915 66.676C169.227 67.108 169.743 67.324 170.463 67.324C171.711 67.324 172.935 66.772 174.135 65.668C175.335 64.564 176.391 63.064 177.303 61.168L177.771 61.528C177.195 62.872 176.463 64.084 175.575 65.164C174.711 66.244 173.751 67.096 172.695 67.72C171.639 68.344 170.547 68.656 169.419 68.656ZM180.513 68.584C179.049 68.584 177.945 68.176 177.201 67.36C176.481 66.568 176.121 65.584 176.121 64.408C176.121 63.328 176.385 62.188 176.913 60.988C177.465 59.788 178.185 58.66 179.073 57.604C179.985 56.548 180.981 55.696 182.061 55.048C183.141 54.376 184.209 54.04 185.265 54.04C185.817 54.04 186.321 54.184 186.777 54.472C187.257 54.76 187.497 55.348 187.497 56.236C187.497 57.148 187.221 58.012 186.669 58.828C186.141 59.62 185.433 60.328 184.545 60.952C183.681 61.576 182.721 62.092 181.665 62.5C180.633 62.884 179.601 63.124 178.569 63.22C178.521 63.46 178.485 63.688 178.461 63.904C178.437 64.12 178.425 64.324 178.425 64.516C178.425 65.26 178.617 65.956 179.001 66.604C179.409 67.228 180.165 67.54 181.269 67.54C182.301 67.54 183.321 67.252 184.329 66.676C185.337 66.076 186.273 65.296 187.137 64.336C188.001 63.376 188.733 62.32 189.333 61.168L189.765 61.492C189.117 62.932 188.289 64.18 187.281 65.236C186.297 66.292 185.217 67.108 184.041 67.684C182.889 68.284 181.713 68.584 180.513 68.584ZM178.749 62.536C179.397 62.32 180.129 62.008 180.945 61.6C181.761 61.168 182.541 60.664 183.285 60.088C184.053 59.512 184.677 58.876 185.157 58.18C185.661 57.484 185.913 56.752 185.913 55.984C185.913 55.72 185.865 55.516 185.769 55.372C185.673 55.228 185.469 55.156 185.157 55.156C184.581 55.156 183.969 55.384 183.321 55.84C182.673 56.272 182.049 56.848 181.449 57.568C180.849 58.288 180.309 59.08 179.829 59.944C179.349 60.808 178.989 61.672 178.749 62.536ZM192.393 68.836C191.265 68.836 190.365 68.584 189.693 68.08C189.045 67.6 188.589 67 188.325 66.28C188.037 65.56 187.893 64.84 187.893 64.12C187.893 63.4 187.989 62.848 188.181 62.464C188.373 62.08 188.601 61.792 188.865 61.6C189.153 61.408 189.417 61.264 189.657 61.168C189.921 61.072 190.101 60.976 190.197 60.88C190.917 60.088 191.577 59.26 192.177 58.396C192.777 57.532 193.305 56.62 193.761 55.66V55.228C193.761 54.34 193.905 53.716 194.193 53.356C194.505 52.972 194.829 52.78 195.165 52.78C195.549 52.78 195.741 52.936 195.741 53.248C195.741 53.368 195.705 53.56 195.633 53.824C195.561 54.088 195.525 54.424 195.525 54.832C195.525 55.624 195.681 56.488 195.993 57.424C196.305 58.336 196.617 59.308 196.929 60.34C197.241 61.348 197.397 62.404 197.397 63.508C197.397 64.132 197.325 64.72 197.181 65.272C198.021 65.128 198.813 64.756 199.557 64.156C200.301 63.532 201.021 62.548 201.717 61.204L202.041 61.564C201.585 62.884 200.901 63.892 199.989 64.588C199.077 65.26 198.081 65.68 197.001 65.848C196.617 66.88 196.005 67.636 195.165 68.116C194.349 68.596 193.425 68.836 192.393 68.836ZM194.913 65.236C194.961 64.996 194.997 64.744 195.021 64.48C195.045 64.216 195.057 63.904 195.057 63.544C195.057 62.416 194.913 61.3 194.625 60.196C194.361 59.068 194.133 58.012 193.941 57.028C193.389 57.94 192.801 58.816 192.177 59.656C191.577 60.472 191.001 61.156 190.449 61.708C190.809 62.476 191.361 63.196 192.105 63.868C192.873 64.54 193.809 64.996 194.913 65.236ZM192.465 67.576C192.753 67.576 193.137 67.48 193.617 67.288C194.097 67.096 194.469 66.604 194.733 65.812C193.725 65.62 192.825 65.224 192.033 64.624C191.265 64.024 190.689 63.424 190.305 62.824C189.777 62.848 189.513 63.268 189.513 64.084C189.513 64.948 189.765 65.752 190.269 66.496C190.797 67.216 191.529 67.576 192.465 67.576Z" fill="#57CBCC"/>
<line y1="70" x2="218" y2="70" stroke="#57CBCC" stroke-width="2"/>
<g clip-path="url(#clip0)">
<path d="M242.439 32.3469L221.006 19.9726L226.31 10.787L247.743 23.1613L242.439 32.3469Z" stroke="#57CBCC" stroke-width="2" stroke-linecap="round" stroke-linejoin="round"/>
<path d="M224.068 21.7403L206.928 30.2154L207.858 67.4949L240.608 49.6608L239.377 30.5792L224.068 21.7403Z" stroke="#57CBCC" stroke-width="2" stroke-linecap="round" stroke-linejoin="round"/>
<path d="M207.858 67.4949L221.268 44.2676" stroke="#57CBCC" stroke-width="2" stroke-linecap="round" stroke-linejoin="round"/>
<path d="M228.597 38.644C227.883 35.9767 225.141 34.3938 222.474 35.1085C219.806 35.8232 218.223 38.5649 218.938 41.2322C219.653 43.8995 222.395 45.4824 225.062 44.7677C227.729 44.053 229.312 41.3113 228.597 38.644Z" stroke="#57CBCC" stroke-width="2" stroke-linecap="round" stroke-linejoin="round"/>
</g>
<defs>
<clipPath id="clip0">
<rect width="60" height="60" fill="white" transform="translate(204.322 73.6186) rotate(-105)"/>
</clipPath>
</defs>
</svg>
